<svg width="14" height="14" viewBox="0 0 14 14" fill="none" xmlns="http://www.w3.org/2000/svg">
<path d="M12.8339 2.97111C12.3127 1.90167 10.8116 1.02667 9.06552 1.53611C8.23114 1.77712 7.50316 2.29398 7.00052 3.00223C6.49787 2.29398 5.76989 1.77712 4.93552 1.53611C3.18552 1.03445 1.6883 1.90167 1.16718 2.97111C0.436074 4.46834 0.739407 6.15223 2.06941 7.97612C3.11163 9.40334 4.60107 10.85 6.7633 12.53C6.83163 12.5833 6.9158 12.6122 7.00246 12.6122C7.08912 12.6122 7.1733 12.5833 7.24163 12.53C9.39996 10.8539 10.8933 9.41889 11.9355 7.97612C13.2616 6.15223 13.565 4.46834 12.8339 2.97111Z" fill="#976464"/>
</svg>
