<svg width="85" height="85" viewBox="0 0 85 85" fill="none" xmlns="http://www.w3.org/2000/svg">
<path fill-rule="evenodd" clip-rule="evenodd" d="M30.4945 30.4936C30.8461 30.142 31.323 29.9445 31.8203 29.9445C32.3176 29.9445 32.7945 30.142 33.1461 30.4936L43.7527 41.1002C44.1044 41.4519 44.3019 41.9288 44.3019 42.4261C44.3019 42.9233 44.1044 43.4003 43.7527 43.7519L33.1461 54.3585C32.7945 54.7101 32.3176 54.9077 31.8203 54.9077C31.323 54.9077 30.8461 54.7101 30.4945 54.3585C30.1429 54.0069 29.9453 53.5299 29.9453 53.0327C29.9453 52.5354 30.1429 52.0585 30.4945 51.7068L39.7753 42.4261L30.4945 33.1453C30.1429 32.7937 29.9453 32.3167 29.9453 31.8195C29.9453 31.3222 30.1429 30.8453 30.4945 30.4936Z" fill="url(#paint0_linear_116_389)"/>
<path fill-rule="evenodd" clip-rule="evenodd" d="M41.1014 43.7519C40.7498 43.4003 40.5522 42.9233 40.5522 42.4261C40.5522 41.9288 40.7498 41.4519 41.1014 41.1002L51.708 30.4936C52.0596 30.142 52.5366 29.9445 53.0338 29.9445C53.5311 29.9445 54.008 30.142 54.3597 30.4936C54.7113 30.8453 54.9088 31.3222 54.9088 31.8195C54.9088 32.3167 54.7113 32.7937 54.3597 33.1453L45.0789 42.4261L54.3597 51.7068C54.7113 52.0585 54.9088 52.5354 54.9088 53.0327C54.9088 53.5299 54.7113 54.0069 54.3597 54.3585C54.008 54.7101 53.5311 54.9077 53.0338 54.9077C52.5366 54.9077 52.0596 54.7101 51.708 54.3585L41.1014 43.7519Z" fill="url(#paint1_linear_116_389)"/>
<defs>
<linearGradient id="paint0_linear_116_389" x1="24.5478" y1="14.3425" x2="61.3977" y2="22.5006" gradientUnits="userSpaceOnUse">
<stop stop-color="#976464"/>
<stop offset="1" stop-color="#CFA5A5"/>
</linearGradient>
<linearGradient id="paint1_linear_116_389" x1="24.5478" y1="14.3425" x2="61.3977" y2="22.5006" gradientUnits="userSpaceOnUse">
<stop stop-color="#976464"/>
<stop offset="1" stop-color="#CFA5A5"/>
</linearGradient>
</defs>
</svg>
