<svg width="30" height="30" viewBox="0 0 30 30" fill="none" xmlns="http://www.w3.org/2000/svg">
<path d="M18.7506 7.49998C18.7511 7.79205 18.6494 8.07509 18.4631 8.29998L12.8631 15L18.2631 21.7125C18.3669 21.8403 18.4444 21.9875 18.4912 22.1454C18.538 22.3033 18.5531 22.4689 18.5357 22.6327C18.5183 22.7965 18.4687 22.9552 18.3897 23.0998C18.3107 23.2443 18.204 23.3718 18.0756 23.475C17.9477 23.5788 17.8006 23.6564 17.6427 23.7031C17.4847 23.7499 17.3191 23.765 17.1553 23.7476C16.9916 23.7302 16.8328 23.6806 16.6883 23.6016C16.5437 23.5226 16.4162 23.4159 16.3131 23.2875L10.2756 15.7875C10.0917 15.5638 9.99121 15.2833 9.99121 14.9937C9.99121 14.7042 10.0917 14.4236 10.2756 14.2L16.5256 6.69998C16.6305 6.57341 16.7594 6.46878 16.9048 6.39209C17.0503 6.3154 17.2094 6.26815 17.3731 6.25306C17.5368 6.23796 17.7019 6.25532 17.8589 6.30412C18.0159 6.35293 18.1618 6.43223 18.2881 6.53748C18.4315 6.6538 18.5473 6.80044 18.6273 6.96686C18.7072 7.13328 18.7493 7.31535 18.7506 7.49998Z" fill="url(#paint0_linear_204_63)"/>
<defs>
<linearGradient id="paint0_linear_204_63" x1="4.51661" y1="27.5399" x2="14.5478" y2="4.86906" gradientUnits="userSpaceOnUse">
<stop stop-color="#976464"/>
<stop offset="1" stop-color="#CFA5A5"/>
</linearGradient>
</defs>
</svg>
