<svg width="30" height="30" viewBox="0 0 30 30" fill="none" xmlns="http://www.w3.org/2000/svg">
<path d="M11.2494 22.5C11.2489 22.208 11.3506 21.9249 11.5369 21.7L17.1369 15L11.7369 8.28752C11.6331 8.15966 11.5556 8.01254 11.5088 7.85462C11.462 7.69669 11.4469 7.53108 11.4643 7.36729C11.4817 7.20351 11.5313 7.04478 11.6103 6.90023C11.6893 6.75569 11.796 6.62817 11.9244 6.52502C12.0523 6.42119 12.1994 6.34365 12.3573 6.29686C12.5153 6.25007 12.6809 6.23495 12.8447 6.25238C13.0084 6.2698 13.1672 6.31942 13.3117 6.39839C13.4563 6.47736 13.5838 6.58411 13.6869 6.71252L19.7244 14.2125C19.9083 14.4362 20.0088 14.7167 20.0088 15.0063C20.0088 15.2958 19.9083 15.5764 19.7244 15.8L13.4744 23.3C13.3695 23.4266 13.2406 23.5312 13.0952 23.6079C12.9497 23.6846 12.7906 23.7318 12.6269 23.7469C12.4632 23.762 12.2981 23.7447 12.1411 23.6959C11.9841 23.6471 11.8382 23.5678 11.7119 23.4625C11.5685 23.3462 11.4527 23.1996 11.3727 23.0331C11.2928 22.8667 11.2507 22.6847 11.2494 22.5Z" fill="url(#paint0_linear_204_65)"/>
<defs>
<linearGradient id="paint0_linear_204_65" x1="25.4834" y1="2.46009" x2="15.4522" y2="25.1309" gradientUnits="userSpaceOnUse">
<stop stop-color="#976464"/>
<stop offset="1" stop-color="#CFA5A5"/>
</linearGradient>
</defs>
</svg>
